<svg width="950" height="950" viewBox="0 0 950 950" fill="none" xmlns="http://www.w3.org/2000/svg">
<path d="M155.562 774.214C32.8289 699.29 118.728 437.514 177.019 315.991C326.68 248.263 654.969 271.015 738.114 307.525C821.259 344.035 975.748 684.263 831.451 774.214C687.154 864.166 725.776 946.18 493.507 949.884C261.237 953.588 308.978 867.87 155.562 774.214Z" fill="#80C2AF"/>
<path fill-rule="evenodd" clip-rule="evenodd" d="M874.967 706.94C880.638 717.203 876.8 730.059 866.395 735.653C628.004 863.818 328.003 857.204 133.135 754.797C122.677 749.3 118.715 736.482 124.287 726.165C129.859 715.849 142.855 711.942 153.313 717.438C335.012 812.924 619.71 820.067 845.858 698.485C856.263 692.891 869.296 696.676 874.967 706.94Z" fill="#264942"/>
<path d="M370.13 723.947C370.13 723.947 420.017 711.248 437.719 662.04C469.368 668.389 470.809 699.078 460.785 711.248C435.614 741.806 395.342 733.472 370.13 723.947Z" fill="#264942"/>
<path d="M600.938 723.947C600.938 723.947 551.051 711.248 533.349 662.04C501.701 668.389 500.259 699.078 510.283 711.248C535.454 741.806 575.727 733.472 600.938 723.947Z" fill="#264942"/>
<path d="M68.1253 257.258C91.9716 343.505 245.859 334.334 372.276 321.282C498.692 308.23 568.605 301.704 683.399 321.282C814.822 343.696 916.742 310.7 910.305 257.258C903.868 203.816 823.941 135.029 770.836 108.044L770.094 107.668C717.924 81.1562 574.055 8.04707 479.56 9.62691C384.613 11.2143 258.554 69.4179 215.104 90.0541C171.654 110.69 47.0586 181.064 68.1253 257.258Z" fill="#2374AB"/>
<path d="M148.588 313.874C70.0565 328.266 119.622 358.85 152.343 372.607C158.78 357.263 312.014 342.147 482.242 341.917C644.962 341.698 787.465 349.326 795.511 365.2C870.073 356.204 865.782 322.284 804.094 313.874C699.492 299.614 667.307 255.67 482.242 255.67C267.668 255.67 246.753 295.884 148.588 313.874Z" fill="#1C4E70"/>
<path fill-rule="evenodd" clip-rule="evenodd" d="M455.212 13.7129C447.773 24.9809 433.193 40.8706 412.093 31.8668C376.584 16.7137 352.488 58.1587 365.797 112.067C381.7 176.484 420.488 226.087 480.096 247.836V0C466.3 0.0590311 462.651 2.44495 455.212 13.7129ZM504.98 13.7129C512.419 24.9809 526.999 40.8706 548.099 31.8668C583.608 16.7137 607.704 58.1587 594.395 112.067C578.492 176.484 539.704 226.087 480.096 247.836V0C493.892 0.0590311 497.541 2.44495 504.98 13.7129Z" fill="#9D3957"/>
<path fill-rule="evenodd" clip-rule="evenodd" d="M459.736 33.7502C453.65 42.9694 441.72 55.9701 424.458 48.6034C395.404 36.2053 375.69 70.1149 386.579 114.222C399.59 166.926 431.326 207.51 480.096 225.305C528.866 207.51 560.602 166.926 573.613 114.222C584.502 70.1149 564.788 36.2053 535.734 48.6034C518.472 55.9701 506.542 42.9694 500.456 33.7502C494.369 24.5309 491.384 22.5788 480.096 22.5305C468.808 22.5788 465.823 24.5309 459.736 33.7502Z" fill="#AA4465"/>
<path d="M493.846 160.572V72.0636H532.576C539.236 72.0636 545.063 73.3601 550.058 75.9531C555.052 78.5461 558.937 82.1908 561.712 86.887C564.487 91.5833 565.874 97.0718 565.874 103.353C565.874 109.691 564.443 115.18 561.58 119.818C558.747 124.457 554.76 128.03 549.62 130.536C544.508 133.043 538.535 134.296 531.7 134.296H508.567V115.626H526.793C529.656 115.626 532.094 115.137 534.11 114.157C536.154 113.149 537.717 111.722 538.798 109.878C539.908 108.035 540.463 105.859 540.463 103.353C540.463 100.817 539.908 98.6565 538.798 96.8702C537.717 95.055 536.154 93.6721 534.11 92.7213C532.094 91.7417 529.656 91.2519 526.793 91.2519H518.206V160.572H493.846Z" fill="#F2D8E4"/>
<path d="M411.434 160.572V72.0636H450.34C457.175 72.0636 462.914 72.9711 467.558 74.7863C472.232 76.6014 475.751 79.1656 478.117 82.4789C480.512 85.7922 481.71 89.6961 481.71 94.1907C481.71 97.4464 480.98 100.414 479.519 103.093C478.088 105.773 476.073 108.02 473.473 109.835C470.873 111.622 467.836 112.86 464.36 113.552V114.416C468.216 114.56 471.721 115.525 474.875 117.312C478.03 119.069 480.542 121.504 482.411 124.615C484.28 127.698 485.215 131.329 485.215 135.506C485.215 140.346 483.93 144.654 481.359 148.428C478.818 152.202 475.196 155.17 470.494 157.331C465.791 159.492 460.183 160.572 453.67 160.572H411.434ZM435.794 141.384H447.185C451.275 141.384 454.341 140.635 456.386 139.136C458.431 137.609 459.453 135.362 459.453 132.395C459.453 130.32 458.971 128.563 458.007 127.122C457.043 125.681 455.67 124.587 453.889 123.838C452.136 123.088 450.019 122.714 447.536 122.714H435.794V141.384ZM435.794 107.847H445.783C447.916 107.847 449.8 107.516 451.435 106.853C453.071 106.191 454.341 105.24 455.247 104.001C456.182 102.733 456.649 101.192 456.649 99.3767C456.649 96.6397 455.656 94.5508 453.67 93.1103C451.684 91.6409 449.172 90.9062 446.134 90.9062H435.794V107.847Z" fill="#F2D8E4"/>
<path d="M226.369 306.996C237.527 319.271 263.204 347.738 275.184 363.083L321.852 351.442C299.322 324.986 277.115 299.588 256.945 278.423C231.733 251.967 201.694 252.496 184.529 232.389C173.131 219.039 171.603 187.413 166.827 178.418C162.05 169.423 127.132 131.855 108.893 117.039C90.655 102.224 84.218 72.5927 70.271 46.1364C64.1588 34.5418 48.8142 22.9538 30.5759 13.3306C12.3377 3.70733 0 22.3257 0 28.6752C0 38.7286 30.5759 50.3694 39.1587 64.1267C53.3532 86.8791 57.3969 119.05 70.271 135.559C83.1451 152.068 112.112 167.306 127.668 186.355C143.224 205.403 135.178 247.204 166.827 271.015C190.848 289.088 212.422 291.651 226.369 306.996Z" fill="#80C2AF"/>
<path d="M723.631 306.996C712.473 319.271 686.796 347.738 674.816 363.083L628.148 351.442C650.678 324.986 672.885 299.588 693.055 278.423C718.267 251.967 748.306 252.496 765.471 232.389C776.869 219.039 778.397 187.413 783.173 178.418C787.95 169.423 822.868 131.855 841.107 117.039C859.345 102.224 865.782 72.5927 879.729 46.1364C885.841 34.5418 901.186 22.9538 919.424 13.3306C937.662 3.70733 950 22.3257 950 28.6752C950 38.7286 919.424 50.3694 910.841 64.1267C896.647 86.8791 892.603 119.05 879.729 135.559C866.855 152.068 837.888 167.306 822.332 186.355C806.776 205.403 814.822 247.204 783.173 271.015C759.152 289.088 737.578 291.651 723.631 306.996Z" fill="#80C2AF"/>
<ellipse cx="231.733" cy="528.7" rx="175.409" ry="186.782" fill="#9D3957"/>
<ellipse cx="231.733" cy="528.7" rx="152.88" ry="163.5" fill="#AA4465"/>
<ellipse cx="231.733" cy="528.7" rx="86.3636" ry="92.5971" fill="#DA8CAC"/>
<ellipse cx="274.647" cy="482.666" rx="43.45" ry="46.5631" fill="#E9B8CD"/>
<ellipse cx="724.167" cy="528.7" rx="175.409" ry="186.782" fill="#9D3957"/>
<ellipse cx="724.167" cy="528.7" rx="152.88" ry="163.5" fill="#AA4465"/>
<ellipse cx="724.167" cy="528.7" rx="86.3636" ry="92.5971" fill="#DA8CAC"/>
<ellipse cx="767.081" cy="482.666" rx="43.45" ry="46.5631" fill="#E9B8CD"/>
</svg>
